<?xml version="1.0" encoding="utf-8"?>
<!-- Generator: Adobe Illustrator 19.0.0, SVG Export Plug-In . SVG Version: 6.00 Build 0)  -->
<svg version="1.1" id="Layer_1" xmlns="http://www.w3.org/2000/svg" xmlns:xlink="http://www.w3.org/1999/xlink" x="0px" y="0px"
	 viewBox="0 0 500 500" style="enable-background:new 0 0 500 500;" xml:space="preserve">
<style type="text/css">
	.st0{fill:#006241;}
</style>
<g id="XMLID_1_">
	<path id="XMLID_5_" class="st0" d="M341.9,292.7c-0.9,16.8-2.4,34.2-11.4,48c-19.5,25.8-49.9,36.8-80.5,37.1v0
		c-30.6-0.3-61-11.3-80.5-37.1c-8.9-13.8-10.5-31.2-11.4-48c-2.1-38.5,1.6-105.3,3.5-112.3c9.7-34.9,43.4-53.2,78.4-56.4
		c0,0,5.6-0.4,10.3-0.6v0c4.5,0.1,9.6,0.5,9.6,0.5c35,3.3,68.7,21.5,78.4,56.4C340.3,187.5,344,254.3,341.9,292.7 M420.3,173.4
		c-22.5-43.9-71.1-59.4-115.8-68.6c-15.5-3.4-45.3-4.9-45.3-4.9c-3.1,0-6.1,0.1-9.2,0.1v0.1c-3-0.1-6.1-0.1-9.2-0.1
		c0,0-29.8,1.4-45.3,4.9c-44.8,9.2-93.3,24.7-115.8,68.6c-14.4,37.1-14.3,85.5-8.6,123.2l0.4,3.2c4.6,38.3,38.8,69.4,76.8,82.5
		c30.7,13.2,66.5,18.3,102,17.7V400c35.3,0.5,70.8-4.6,101.3-17.7c38-13,72.2-44.2,76.8-82.5l0.4-3.2
		C434.6,258.9,434.7,210.6,420.3,173.4"/>
</g>
</svg>
